<svg
        width="150"
        height="37"
        viewBox="0 0 150 37"
        fill="none"
        xmlns="http://www.w3.org/2000/svg"
>
    <path
            d="M67.4126 0V2.02082H54.9356C52.6192 2.02082 50.4871 2.77863 48.7893 4.04165C48.1312 4.53422 47.5258 5.10258 47.0125 5.74672C45.7359 7.31286 44.9593 9.27053 44.9067 11.405C44.9067 11.4934 44.9067 11.5692 44.9067 11.6576C44.9067 11.746 44.9067 11.8218 44.9067 11.9102C44.9199 12.327 44.9593 12.7438 45.0251 13.148H42.893C42.8272 12.6554 42.7877 12.1628 42.7877 11.6576C42.7877 9.22001 43.5642 6.95921 44.8935 5.10258C45.1568 4.73631 45.4331 4.39529 45.7359 4.05428C46.1307 3.61222 46.5519 3.20806 46.9993 2.84178C47.3415 2.55129 47.7101 2.28606 48.0917 2.03345C50.0396 0.757809 52.3955 0.01263 54.9225 0.01263H67.4126V0Z"
            fill="white"
    />
    <path
            d="M67.4124 4.04169V6.06251H54.9223C53.5272 6.06251 52.2373 6.54246 51.2371 7.33816C50.9475 7.5655 50.6843 7.8181 50.4606 8.08333C49.6314 9.04323 49.1313 10.281 49.1313 11.6198C49.1313 12.1502 49.2102 12.6554 49.355 13.1354H47.1834C47.0781 12.6428 47.0255 12.1376 47.0255 11.6198C47.0255 9.62421 47.8283 7.8181 49.1313 6.46668C49.2629 6.32774 49.4077 6.18881 49.5524 6.06251C50.9607 4.81213 52.8428 4.04169 54.9223 4.04169H67.4124Z"
            fill="white"
    />
    <path
            d="M67.4125 8.08331V10.1041H54.9224C54.0538 10.1041 53.3431 10.7862 53.3431 11.6198C53.3431 12.0365 53.5142 12.4154 53.8037 12.6933C54.0933 12.9712 54.4881 13.1354 54.9224 13.1354H51.5926C51.3689 12.6807 51.2372 12.1628 51.2372 11.6198C51.2372 9.66208 52.8824 8.08331 54.9224 8.08331H67.4125Z"
            fill="white"
    />
    <path
            d="M30.9293 24.8056C30.9293 26.7633 29.2841 28.342 27.2441 28.342H14.7408V26.3212H27.2441C28.1128 26.3212 28.8235 25.6392 28.8235 24.8056C28.8235 24.3888 28.6524 24.0099 28.3628 23.7321C28.0733 23.4542 27.6784 23.29 27.2441 23.29H30.5739C30.7977 23.7447 30.9293 24.2625 30.9293 24.8056Z"
            fill="white"
    />
    <path
            d="M35.1409 24.8056C35.1409 26.8012 34.3381 28.6073 33.0351 29.9587C32.9035 30.0977 32.7587 30.2366 32.6139 30.3629C31.2057 31.6133 29.3236 32.3837 27.2441 32.3837H14.7408V30.3629H27.2441C28.6392 30.3629 29.929 29.8829 30.9293 29.0872C31.2188 28.8599 31.4821 28.6073 31.7058 28.3421C32.535 27.3822 33.0351 26.1444 33.0351 24.8056C33.0351 24.2752 32.9561 23.77 32.8114 23.29H34.983C35.0883 23.7826 35.1409 24.2878 35.1409 24.8056Z"
            fill="white"
    />
    <path
            d="M39.3525 24.7803C39.3525 27.218 38.576 29.4661 37.2467 31.3354C36.9835 31.7017 36.7071 32.0427 36.4044 32.3837C36.0096 32.8131 35.5884 33.2299 35.1409 33.5962C34.7987 33.8867 34.4302 34.1519 34.0485 34.4045C32.1006 35.6802 29.7448 36.4253 27.2178 36.4253H14.7408V34.4045H27.2178C29.5342 34.4045 31.6663 33.6467 33.3641 32.3837C34.0222 31.8911 34.6276 31.3228 35.1409 30.6786C36.4176 29.1125 37.1941 27.1548 37.2467 25.0203C37.2467 24.9319 37.2467 24.8561 37.2467 24.7677C37.2467 24.6793 37.2467 24.6035 37.2467 24.5151C37.2336 24.0983 37.1941 23.6815 37.1283 23.2773H39.2604C39.3262 23.7826 39.3525 24.2751 39.3525 24.7803Z"
            fill="white"
    />
    <path
            d="M2.10581 10.0915V36.4127H0V12.1123C0 11.0009 0.947617 10.0915 2.10581 10.0915Z"
            fill="white"
    />
    <path
            d="M6.3176 10.0915V36.4127H4.21179V12.1123C4.21179 11.0009 5.15941 10.0915 6.3176 10.0915Z"
            fill="white"
    />
    <path
            d="M10.5423 10.0915V36.4127H8.43652V12.1123C8.43652 11.0009 9.37098 10.0915 10.5423 10.0915Z"
            fill="white"
    />
    <path
            d="M58.3043 24.8056C58.3043 26.7633 56.6592 28.3421 54.6192 28.3421H42.9056V26.3212H54.6192C55.4878 26.3212 56.1985 25.6392 56.1985 24.8056C56.1985 24.3888 56.0274 24.0099 55.7379 23.7321C55.4483 23.4542 55.0535 23.29 54.6192 23.29H54.4744C53.8426 23.29 53.2372 23.05 52.8029 22.6206L51.3946 21.2692H54.6192C56.646 21.2692 58.3043 22.848 58.3043 24.8056Z"
            fill="#DC313C"
    />
    <path
            d="M62.516 24.8056C62.516 28.9862 58.9756 32.3837 54.6192 32.3837H42.9056V30.3629H54.6192C57.8174 30.3629 60.4102 27.8748 60.4102 24.8056C60.4102 23.2647 59.7652 21.8754 58.7123 20.8776C57.6594 19.8672 56.2117 19.2483 54.6192 19.2483H50.5128C49.9469 19.2483 49.4073 19.0589 48.973 18.7052L47.1699 17.2275H54.606C58.9756 17.2275 62.516 20.625 62.516 24.8056Z"
            fill="#DC313C"
    />
    <path
            d="M66.7276 24.7803C66.7276 31.2091 61.292 36.4253 54.5928 36.4253H42.9056V34.4045H54.5928C60.1338 34.4045 64.6218 30.0976 64.6218 24.7803C64.6218 22.128 63.5031 19.7156 61.6868 17.9727C59.8705 16.2297 57.3699 15.1561 54.5928 15.1561H45.9985C45.3667 15.1561 44.7613 14.9162 44.327 14.4867L42.9187 13.1353H54.606C61.292 13.1353 66.7276 18.3516 66.7276 24.7803Z"
            fill="#DC313C"
    />
    <path
            d="M39.26 8.08331V10.1041H27.5464C26.6778 10.1041 25.9671 10.7862 25.9671 11.6197C25.9671 12.0365 26.1513 12.4154 26.4277 12.6933C26.7173 12.9712 27.1121 13.1354 27.5464 13.1354H27.6912C28.323 13.1354 28.9152 13.3753 29.3627 13.8048L30.771 15.1562H27.5464C25.5064 15.1562 23.8613 13.5774 23.8613 11.6197C23.8613 9.66208 25.5064 8.08331 27.5464 8.08331H39.26Z"
            fill="#DC313C"
    />
    <path
            d="M39.2604 4.04169V6.06251H27.5469C24.3486 6.06251 21.7559 8.55065 21.7559 11.6198C21.7559 13.1607 22.4008 14.55 23.4537 15.5478C24.5066 16.5582 25.9543 17.177 27.5469 17.177H31.6532C32.2191 17.177 32.7587 17.3665 33.1931 17.7201L34.9962 19.1979H27.56C23.2036 19.1979 19.6632 15.8004 19.6632 11.6198C19.6632 7.4392 23.2036 4.04169 27.56 4.04169H39.2604Z"
            fill="#DC313C"
    />
    <path
            d="M17.5437 11.645C17.5437 14.2973 18.6624 16.7097 20.4787 18.4527C22.295 20.1956 24.7956 21.2692 27.5727 21.2692H36.167C36.7987 21.2692 37.4042 21.5091 37.8385 21.9386L39.2468 23.29H27.5595C20.8604 23.29 15.4247 18.0737 15.4247 11.645C15.4247 5.21625 20.8604 0 27.5595 0H39.2468V2.02082H27.5595C22.0317 2.02082 17.5437 6.32771 17.5437 11.645Z"
            fill="#DC313C"
    />
    <path
            d="M4.21147 0V8.0833C4.21147 9.19475 3.26385 10.1041 2.10565 10.1041V0H4.21147Z"
            fill="#DC313C"
    />
    <path
            d="M8.42326 0V8.0833C8.42326 9.19475 7.47564 10.1041 6.31744 10.1041V0H8.42326Z"
            fill="#DC313C"
    />
    <path
            d="M12.648 0V8.0833C12.648 9.19475 11.7004 10.1041 10.5422 10.1041V0H12.648Z"
            fill="#DC313C"
    />
    <path
            d="M73.7685 8.42437H71.7417V0.341064H73.7685V8.42437Z"
            fill="#DC313C"
    />
    <path
            d="M75.9539 19.9178C75.9539 19.6273 75.8486 19.4126 75.638 19.2484C75.4274 19.0843 75.0589 18.9201 74.5324 18.7559C74.006 18.5917 73.5717 18.4149 73.2426 18.2633C72.1502 17.7455 71.6106 17.0382 71.6106 16.1414C71.6106 15.6994 71.7422 15.2952 72.0186 14.9542C72.295 14.6132 72.6767 14.348 73.1768 14.1585C73.677 13.9691 74.2297 13.868 74.8483 13.868C75.4537 13.868 75.9934 13.9691 76.4803 14.1838C76.9541 14.3858 77.3358 14.689 77.599 15.0679C77.8623 15.4468 77.9939 15.8888 77.9939 16.3814H75.967C75.967 16.053 75.8617 15.8004 75.6512 15.611C75.4406 15.4341 75.151 15.3331 74.7957 15.3331C74.4272 15.3331 74.1508 15.4089 73.9402 15.5604C73.7296 15.712 73.6243 15.9141 73.6243 16.1414C73.6243 16.3435 73.7428 16.533 73.9665 16.7098C74.1903 16.8866 74.5983 17.0508 75.1905 17.2276C75.7828 17.4044 76.2566 17.6065 76.6251 17.8086C77.5332 18.3138 77.9939 19.0085 77.9939 19.8926C77.9939 20.5999 77.7175 21.1556 77.1647 21.5598C76.6119 21.9639 75.8486 22.166 74.8746 22.166C74.1903 22.166 73.5717 22.0523 73.0189 21.8124C72.4661 21.5724 72.045 21.2566 71.7686 20.8525C71.4922 20.4483 71.3474 19.9684 71.3474 19.4379H73.3874C73.3874 19.8673 73.5059 20.1957 73.7428 20.3978C73.9797 20.5999 74.3614 20.7009 74.8746 20.7009C75.2037 20.7009 75.4801 20.6378 75.6643 20.4988C75.8486 20.3599 75.9539 20.1704 75.9539 19.9178Z"
            fill="#DC313C"
    />
    <path
            d="M75.9539 33.5584C75.9539 33.2679 75.8486 33.0532 75.638 32.889C75.4274 32.7248 75.0589 32.5606 74.5324 32.3964C74.006 32.2322 73.5717 32.0554 73.2426 31.9038C72.1502 31.386 71.6106 30.6787 71.6106 29.782C71.6106 29.3399 71.7422 28.9357 72.0186 28.5947C72.295 28.2537 72.6767 27.9885 73.1768 27.799C73.677 27.6096 74.2297 27.5085 74.8483 27.5085C75.4537 27.5085 75.9934 27.6096 76.4803 27.8243C76.9541 28.0264 77.3358 28.3295 77.599 28.7084C77.8623 29.0873 77.9939 29.5294 77.9939 30.0219H75.967C75.967 29.6936 75.8617 29.441 75.6512 29.2515C75.4406 29.0747 75.151 28.9736 74.7957 28.9736C74.4272 28.9736 74.1508 29.0494 73.9402 29.201C73.7296 29.3525 73.6243 29.5546 73.6243 29.782C73.6243 29.984 73.7428 30.1735 73.9665 30.3503C74.1903 30.5271 74.5983 30.6913 75.1905 30.8682C75.7828 31.045 76.2566 31.2471 76.6251 31.4491C77.5332 31.9543 77.9939 32.649 77.9939 33.5331C77.9939 34.2404 77.7175 34.7961 77.1647 35.2003C76.6119 35.6044 75.8486 35.8065 74.8746 35.8065C74.1903 35.8065 73.5717 35.6929 73.0189 35.4529C72.4661 35.2129 72.045 34.8972 71.7686 34.493C71.4922 34.0888 71.3474 33.6089 71.3474 33.0784H73.3874C73.3874 33.5078 73.5059 33.8362 73.7428 34.0383C73.9797 34.2404 74.3614 34.3414 74.8746 34.3414C75.2037 34.3414 75.4801 34.2783 75.6643 34.1394C75.8486 34.0004 75.9539 33.811 75.9539 33.5584Z"
            fill="#DC313C"
    />
    <path
            d="M82.219 8.42438H80.2053L77.2177 3.39757V8.42438H75.1777V0.341064H77.2045L80.179 5.36788V0.341064H82.2058V8.42438H82.219Z"
            fill="white"
    />
    <path
            d="M88.7997 5.20369H85.5226V8.42438H83.4957V0.341064H89.1288V1.84406H85.5226V3.70069H88.7997V5.20369Z"
            fill="white"
    />
    <path
            d="M97.1041 4.54687C97.1041 5.32994 96.9462 6.03723 96.6435 6.64348C96.3408 7.24973 95.9065 7.71705 95.3405 8.04543C94.7746 8.37381 94.1428 8.53801 93.419 8.53801C92.6951 8.53801 92.0634 8.37381 91.5106 8.05806C90.9578 7.74231 90.5235 7.28762 90.2076 6.70663C89.8917 6.11302 89.7338 5.44362 89.7206 4.68581V4.23112C89.7206 3.43542 89.8654 2.74076 90.1813 2.13451C90.484 1.52827 90.9183 1.06095 91.4843 0.732566C92.0502 0.404182 92.6951 0.23999 93.419 0.23999C94.1297 0.23999 94.7746 0.404182 95.3274 0.732566C95.8801 1.06095 96.3276 1.51564 96.6303 2.12188C96.9462 2.72813 97.1041 3.41016 97.1041 4.19323V4.54687ZM95.0378 4.21849C95.0378 3.41016 94.893 2.80391 94.6167 2.38712C94.3403 1.97032 93.9323 1.76824 93.419 1.76824C92.4056 1.76824 91.8659 2.50079 91.8001 3.96589V4.5595C91.8001 5.3552 91.9318 5.96145 92.2081 6.39088C92.4845 6.8203 92.8925 7.03502 93.4321 7.03502C93.9454 7.03502 94.3403 6.8203 94.6167 6.40351C94.893 5.98671 95.0378 5.38047 95.0378 4.5974V4.21849Z"
            fill="white"
    />
    <path
            d="M101.29 5.56996H100.184V8.42438H98.1572V0.341064H101.474C102.474 0.341064 103.251 0.555778 103.817 0.972574C104.382 1.402 104.659 1.99562 104.659 2.77869C104.659 3.33442 104.54 3.80174 104.304 4.18064C104.067 4.54692 103.698 4.85004 103.185 5.07738L104.948 8.33597V8.42438H102.777L101.29 5.56996ZM100.184 4.06697H101.474C101.855 4.06697 102.145 3.96593 102.342 3.77648C102.54 3.58702 102.632 3.30916 102.632 2.95551C102.632 2.60187 102.54 2.33663 102.342 2.13455C102.145 1.93247 101.855 1.83143 101.474 1.83143H100.184V4.06697Z"
            fill="white"
    />
    <path
            d="M108.555 0.341121L110.437 5.96154L112.306 0.341121H114.978V8.42442H112.938V6.54253L113.135 2.6777L111.095 8.42442H109.753L107.713 2.66507L107.91 6.5299V8.41179H105.883V0.328491H108.555V0.341121Z"
            fill="white"
    />
    <path
            d="M121.15 6.92133H118.373L117.886 8.43695H115.715L118.808 0.353638H120.716L123.822 8.43695H121.637L121.15 6.92133ZM118.86 5.40571H120.677L119.768 2.60181L118.86 5.40571Z"
            fill="white"
    />
    <path
            d="M130.35 1.84406H127.823V8.42438H125.796V1.84406H123.309V0.341064H130.35V1.84406Z"
            fill="white"
    />
    <path
            d="M133.377 8.42438H131.35V0.341064H133.377V8.42438Z"
            fill="white"
    />
    <path
            d="M141.919 4.54687C141.919 5.32994 141.761 6.03723 141.458 6.64348C141.155 7.24973 140.721 7.71705 140.155 8.04543C139.589 8.37381 138.957 8.53801 138.233 8.53801C137.51 8.53801 136.878 8.37381 136.325 8.05806C135.772 7.74231 135.338 7.28762 135.022 6.70663C134.706 6.11302 134.548 5.44362 134.535 4.68581V4.23112C134.535 3.43542 134.68 2.74076 134.996 2.13451C135.299 1.52827 135.733 1.06095 136.299 0.732566C136.865 0.404182 137.51 0.23999 138.233 0.23999C138.944 0.23999 139.589 0.404182 140.142 0.732566C140.695 1.06095 141.142 1.51564 141.445 2.12188C141.761 2.72813 141.919 3.41016 141.919 4.19323V4.54687ZM139.852 4.21849C139.852 3.41016 139.708 2.80391 139.431 2.38712C139.155 1.97032 138.747 1.76824 138.233 1.76824C137.22 1.76824 136.68 2.50079 136.615 3.96589V4.5595C136.615 5.3552 136.746 5.96145 137.023 6.39088C137.299 6.8203 137.707 7.03502 138.247 7.03502C138.76 7.03502 139.155 6.8203 139.431 6.40351C139.708 5.98671 139.852 5.38047 139.852 4.5974V4.21849Z"
            fill="white"
    />
    <path
            d="M150 8.42438H147.986L144.999 3.39757V8.42438H142.959V0.341064H144.986L147.96 5.36788V0.341064H149.987V8.42438H150Z"
            fill="white"
    />
    <path
            d="M84.2456 18.6295H81.0473V20.5619H84.8246V22.0649H79.0205V13.9816H84.8378V15.4846H81.0605V17.1897H84.2587V18.6295H84.2456Z"
            fill="white"
    />
    <path
            d="M88.7864 19.2105H87.6808V22.0649H85.654V13.9816H88.9706C89.9709 13.9816 90.7474 14.1963 91.3134 14.6131C91.8793 15.0425 92.1557 15.6362 92.1557 16.4192C92.1557 16.975 92.0372 17.4423 91.8003 17.8212C91.5634 18.1875 91.1949 18.4906 90.6816 18.7179L92.4452 21.9765V22.0649H90.2736L88.7864 19.2105ZM87.6808 17.7075H88.9706C89.3523 17.7075 89.6419 17.6065 89.8393 17.417C90.0367 17.2276 90.1288 16.9497 90.1288 16.5961C90.1288 16.2424 90.0367 15.9772 89.8393 15.7751C89.6419 15.573 89.3523 15.472 88.9706 15.472H87.6808V17.7075Z"
            fill="white"
    />
    <path
            d="M96.5383 19.8673L98.2098 13.9816H100.474L97.6439 22.0649H95.4196L92.6031 13.9816H94.8537L96.5383 19.8673Z"
            fill="white"
    />
    <path
            d="M103.264 22.0649H101.237V13.9816H103.264V22.0649Z"
            fill="white"
    />
    <path
            d="M111.476 19.3242C111.45 19.8925 111.292 20.3851 111.003 20.8145C110.713 21.244 110.305 21.585 109.779 21.8123C109.252 22.0523 108.66 22.166 107.989 22.166C106.883 22.166 106.014 21.825 105.37 21.1303C104.725 20.4356 104.409 19.4631 104.409 18.2001V17.7959C104.409 17.0002 104.554 16.3056 104.843 15.712C105.133 15.1183 105.541 14.6636 106.08 14.3353C106.62 14.0069 107.238 13.8553 107.949 13.8553C108.976 13.8553 109.792 14.1079 110.41 14.6258C111.029 15.1436 111.384 15.8509 111.463 16.7603H109.436C109.423 16.2677 109.292 15.914 109.055 15.6993C108.818 15.4846 108.436 15.3836 107.949 15.3836C107.449 15.3836 107.067 15.5604 106.844 15.9267C106.62 16.2929 106.488 16.8739 106.475 17.6696V18.238C106.475 19.0968 106.594 19.7157 106.817 20.082C107.041 20.4483 107.436 20.6377 107.989 20.6377C108.449 20.6377 108.818 20.5367 109.055 20.322C109.292 20.1073 109.436 19.7789 109.45 19.3116H111.476V19.3242Z"
            fill="white"
    />
    <path
            d="M117.662 18.6295H114.464V20.5619H118.241V22.0649H112.437V13.9816H118.255V15.4846H114.477V17.1897H117.676V18.6295H117.662Z"
            fill="white"
    />
    <path
            d="M82.1003 31.1334L83.6534 27.6222H85.8513L83.1401 32.8005V35.7055H81.0869V32.8005L78.3757 27.6222H80.5605L82.1003 31.1334Z"
            fill="white"
    />
    <path
            d="M90.7082 33.5583C90.7082 33.2678 90.6029 33.0531 90.3923 32.8889C90.1817 32.7247 89.8132 32.5605 89.2867 32.3963C88.7603 32.2321 88.326 32.0553 87.9969 31.9037C86.9045 31.3859 86.3649 30.6786 86.3649 29.7819C86.3649 29.3398 86.4965 28.9357 86.7729 28.5946C87.0493 28.2536 87.431 27.9884 87.9311 27.7989C88.4312 27.6095 88.984 27.5085 89.6026 27.5085C90.208 27.5085 90.7476 27.6095 91.2346 27.8242C91.7084 28.0263 92.0901 28.3294 92.3533 28.7083C92.6165 29.0872 92.7482 29.5293 92.7482 30.0218H90.7213C90.7213 29.6935 90.616 29.4409 90.4054 29.2514C90.1949 29.0746 89.9053 28.9735 89.55 28.9735C89.1814 28.9735 88.9051 29.0493 88.6945 29.2009C88.4839 29.3524 88.3786 29.5545 88.3786 29.7819C88.3786 29.984 88.4971 30.1734 88.7208 30.3502C88.9445 30.5271 89.3525 30.6912 89.9448 30.8681C90.5371 31.0449 91.0109 31.247 91.3794 31.449C92.2875 31.9543 92.7482 32.6489 92.7482 33.533C92.7482 34.2403 92.4718 34.796 91.919 35.2002C91.3662 35.6044 90.6029 35.8064 89.6289 35.8064C88.9445 35.8064 88.326 35.6928 87.7732 35.4528C87.2204 35.2128 86.7992 34.8971 86.5228 34.4929C86.2465 34.0887 86.1017 33.6088 86.1017 33.0783H88.1417C88.1417 33.5078 88.2601 33.8361 88.4971 34.0382C88.734 34.2403 89.1156 34.3413 89.6289 34.3413C89.958 34.3413 90.2343 34.2782 90.4186 34.1393C90.616 34.0003 90.7082 33.8109 90.7082 33.5583Z"
            fill="white"
    />
    <path
            d="M100.395 29.1252H97.8677V35.7055H95.8408V29.1252H93.3533V27.6222H100.395V29.1252Z"
            fill="white"
    />
    <path
            d="M106.476 32.2701H103.277V34.2025H107.055V35.7055H101.25V27.6222H107.068V29.1252H103.29V30.8302H106.489V32.2701H106.476Z"
            fill="white"
    />
    <path
            d="M110.542 27.6221L112.424 33.2426L114.293 27.6221H116.965V35.7055H114.925V33.8236L115.122 29.9587L113.082 35.7055H111.74L109.7 29.9461L109.897 33.8109V35.6928H107.87V27.6095H110.542V27.6221Z"
            fill="white"
    />
    <path
            d="M122.598 33.5583C122.598 33.2678 122.493 33.0531 122.282 32.8889C122.071 32.7247 121.703 32.5605 121.176 32.3963C120.65 32.2321 120.216 32.0553 119.887 31.9037C118.794 31.3859 118.255 30.6786 118.255 29.7819C118.255 29.3398 118.386 28.9357 118.663 28.5946C118.939 28.2536 119.321 27.9884 119.821 27.7989C120.321 27.6095 120.874 27.5085 121.492 27.5085C122.098 27.5085 122.637 27.6095 123.124 27.8242C123.598 28.0263 123.98 28.3294 124.243 28.7083C124.506 29.0872 124.638 29.5293 124.638 30.0218H122.611C122.611 29.6935 122.506 29.4409 122.295 29.2514C122.085 29.0746 121.795 28.9735 121.44 28.9735C121.071 28.9735 120.795 29.0493 120.584 29.2009C120.374 29.3524 120.268 29.5545 120.268 29.7819C120.268 29.984 120.387 30.1734 120.61 30.3502C120.834 30.5271 121.242 30.6912 121.834 30.8681C122.427 31.0449 122.901 31.247 123.269 31.449C124.177 31.9543 124.638 32.6489 124.638 33.533C124.638 34.2403 124.361 34.796 123.809 35.2002C123.256 35.6044 122.493 35.8064 121.519 35.8064C120.834 35.8064 120.216 35.6928 119.663 35.4528C119.11 35.2128 118.689 34.8971 118.412 34.4929C118.136 34.0887 117.991 33.6088 117.991 33.0783H120.031C120.031 33.5078 120.15 33.8361 120.387 34.0382C120.624 34.2403 121.005 34.3413 121.519 34.3413C121.848 34.3413 122.124 34.2782 122.308 34.1393C122.506 34.0003 122.598 33.8109 122.598 33.5583Z"
            fill="white"
    />
</svg>